# xmcd CD database file
# Copyright (C) 1993-1996 Ti Kan
#
# Track frame offsets:
# 183
# 12395
# 22733
# 36170
# 47695
# 57908
# 68020
# 78458
# 90470
# 104370
# 118270
# 130158
# 141483
# 152208
# 162558
# 173258
# 184220
# 195183
# 208720
# 226395
#
# Disc length: 3153 seconds
#
# Revision: 0
# Processed by: cddbd v1.4b41PL1 Copyright (c) Steve Scherf et al.
# Submitted via: inCDius 1.1b5
#
DISCID=090c4f14
DTITLE=David Houston - Almost Persuaded - 20 Greatest Hits
DYEAR=1900
DGENRE=
TTITLE0=Mountain Of Love
TTITLE1=Livin' In A House Full Of Love
TTITLE2=Almost Persuaded
TTITLE3=A Loser's Cathedral
TTITLE4=With One Exception
TTITLE5=You Mean The World To Me
TTITLE6=Have A Little Faith
TTITLE7=Already It's Heaven
TTITLE8=Where Love Used To Live
TTITLE9=My Woman's Good To Me
TTITLE10=I'm Down To My Last (I Love You)
TTITLE11=I Do My Swinging At Home
TTITLE12=Wonders Of The Wine
TTITLE13=A Woman Always Knows
TTITLE14=After Closing Time
TTITLE15=Too Far Gone
TTITLE16=Valley Of Tears
TTITLE17=Empty Arms
TTITLE18=I Can't Stop Loving You
TTITLE19=I Fall To Pieces
EXTD=
EXTT0=
EXTT1=
EXTT2=
EXTT3=
EXTT4=
EXTT5=
EXTT6=
EXTT7=
EXTT8=
EXTT9=
EXTT10=
EXTT11=
EXTT12=
EXTT13=
EXTT14=
EXTT15=
EXTT16=
EXTT17=
EXTT18=
EXTT19=
PLAYORDER=
